HIERARCHY
ROOT joint_Root
{
	OFFSET 0.0 0.0 0.0
	CHANNELS 6 Xposition Yposition Zposition Zrotation Xrotation Yrotation 
	JOINT Hips
	{
		OFFSET -17.1583 93.1646 452.98
		CHANNELS 6 Xposition Yposition Zposition Zrotation Xrotation Yrotation 
		JOINT Spine
		{
			OFFSET 15.7357 0.0 0.0
			CHANNELS 6 Xposition Yposition Zposition Zrotation Xrotation Yrotation 
			JOINT Chest
			{
				OFFSET 8.98455 -0.406207 0.0
				CHANNELS 6 Xposition Yposition Zposition Zrotation Xrotation Yrotation 
				JOINT Neck
				{
					OFFSET 16.3773 0.0 0.0
					CHANNELS 6 Xposition Yposition Zposition Zrotation Xrotation Yrotation 
					JOINT Head
					{
						OFFSET 6.45672 0.0 0.0
						CHANNELS 6 Xposition Yposition Zposition Zrotation Xrotation Yrotation 
						End Site
						{
							OFFSET 0.0 0.0 0.0
						}
					}
				}
				JOINT Shoulder_L
				{
					OFFSET 12.9942 -0.242716 4.98039
					CHANNELS 6 Xposition Yposition Zposition Zrotation Xrotation Yrotation 
					JOINT UpperArm_L
					{
						OFFSET 5.34809 0.0 0.0
						CHANNELS 6 Xposition Yposition Zposition Zrotation Xrotation Yrotation 
						JOINT LowerArm_L
						{
							OFFSET 24.3286 1.87007e-05 0.0
							CHANNELS 6 Xposition Yposition Zposition Zrotation Xrotation Yrotation 
							JOINT Hand_L
							{
								OFFSET 22.2916 0.0 0.0
								CHANNELS 6 Xposition Yposition Zposition Zrotation Xrotation Yrotation 
								End Site
								{
									OFFSET 0.0 0.0 0.0
								}
							}
						}
					}
				}
				JOINT Shoulder_R
				{
					OFFSET 12.9945 -0.242716 -4.98039
					CHANNELS 6 Xposition Yposition Zposition Zrotation Xrotation Yrotation 
					JOINT UpperArm_R
					{
						OFFSET -5.34813 0.0 0.0
						CHANNELS 6 Xposition Yposition Zposition Zrotation Xrotation Yrotation 
						JOINT LowerArm_R
						{
							OFFSET -24.3289 0.000322201 0.0
							CHANNELS 6 Xposition Yposition Zposition Zrotation Xrotation Yrotation 
							JOINT Hand_R
							{
								OFFSET -22.2915 -0.000108084 0.0
								CHANNELS 6 Xposition Yposition Zposition Zrotation Xrotation Yrotation 
								End Site
								{
									OFFSET 0.0 0.0 0.0
								}
							}
						}
					}
				}
			}
		}
		JOINT UpperLeg_L
		{
			OFFSET -2.19248 -6.46944 0.0
			CHANNELS 6 Xposition Yposition Zposition Zrotation Xrotation Yrotation 
			JOINT LowerLeg_L
			{
				OFFSET 39.0811 0.0 -1.23785e-05
				CHANNELS 6 Xposition Yposition Zposition Zrotation Xrotation Yrotation 
				JOINT Foot_L
				{
					OFFSET 40.9854 0.0 -1.26872e-05
					CHANNELS 6 Xposition Yposition Zposition Zrotation Xrotation Yrotation 
					JOINT Toes_L
					{
						OFFSET 11.7543 0.0 0.0
						CHANNELS 6 Xposition Yposition Zposition Zrotation Xrotation Yrotation 
						End Site
						{
							OFFSET 0.0 0.0 0.0
						}
					}
				}
			}
		}
		JOINT UpperLeg_R
		{
			OFFSET -2.19251 6.46944 0.0
			CHANNELS 6 Xposition Yposition Zposition Zrotation Xrotation Yrotation 
			JOINT LowerLeg_R
			{
				OFFSET -39.0811 -0.00228153 -0.0401928
				CHANNELS 6 Xposition Yposition Zposition Zrotation Xrotation Yrotation 
				JOINT Foot_R
				{
					OFFSET -40.9854 0.0 0.0
					CHANNELS 6 Xposition Yposition Zposition Zrotation Xrotation Yrotation 
					JOINT Toes_R
					{
						OFFSET -11.7543 0.0 0.0
						CHANNELS 6 Xposition Yposition Zposition Zrotation Xrotation Yrotation 
						End Site
						{
							OFFSET 0.0 0.0 0.0
						}
					}
				}
			}
		}
	}
}
MOTION
Frames:	9
Frame Time:	0.0333333
0.000000 0.000000 0.000000 0.000000 0.000000 -0.000000 -211.112000 92.577700 179.629000 25.953400 87.297200 68.149200 15.735700 0.000005 -0.000001 66.819800 84.214100 -65.702400 8.984550 -0.406207 -0.000000 2.925740 -4.597710 2.350850 16.377300 -0.000001 -0.000001 9.505730 5.831050 -2.981200 6.456720 -0.000001 -0.000000 -4.706030 8.385190 3.364360 12.994200 -0.242716 4.980390 -92.931300 7.878570 -69.516000 5.348090 -0.000007 -0.000001 -74.591700 -8.542050 -15.015800 24.328600 0.000019 0.000005 31.964400 26.921700 -54.035200 22.291600 -0.000001 0.000005 59.805300 4.317970 19.513600 12.994500 -0.242716 -4.980390 89.032300 2.529860 -69.059100 -5.348130 -0.000001 -0.000004 -67.163200 -5.735770 9.728680 -24.328900 0.000322 -0.000009 0.047711 1.410400 -1.982230 -22.291500 -0.000108 -0.000004 50.800400 5.529870 -7.789350 -2.192480 -6.469440 -0.000000 -177.148000 -7.088350 9.230920 39.081100 -0.000007 -0.000012 -0.007441 0.031650 13.228500 40.985400 -0.000006 -0.000013 -0.851234 20.200200 -66.581200 11.754300 -0.000000 0.000003 1.999470 3.020310 -13.079100 -2.192510 6.469440 -0.000001 -177.441000 -9.957050 156.750000 -39.081100 -0.002282 -0.040193 -0.026890 0.038947 37.767200 -40.985400 0.000008 0.000006 -2.150170 -15.561000 -62.143000 -11.754300 -0.000006 -0.000006 -0.003801 0.217024 -7.765920
0.000000 0.000000 0.000000 0.000000 0.000000 -0.000000 -208.686000 92.190200 179.793000 27.638800 87.647700 66.376600 15.735700 0.000005 -0.000001 66.530800 84.135300 -65.560900 8.984550 -0.406207 -0.000000 3.042610 -4.706530 2.063590 16.377300 -0.000001 -0.000001 9.001520 5.836530 -2.781020 6.456720 -0.000001 -0.000000 -4.883080 8.330930 3.439190 12.994200 -0.242716 4.980390 -92.827700 7.631540 -69.598300 5.348090 -0.000007 -0.000001 -74.078800 -9.356780 -16.713000 24.328600 0.000019 0.000005 34.957800 24.837700 -58.999100 22.291600 -0.000001 0.000005 59.183000 4.302070 19.760900 12.994500 -0.242716 -4.980390 89.126000 2.302330 -69.206800 -5.348130 -0.000001 -0.000004 -66.126700 -6.696970 11.064600 -24.328900 0.000322 -0.000009 0.050537 1.944870 -1.519770 -22.291500 -0.000108 -0.000004 51.081800 5.526350 -7.636350 -2.192480 -6.469440 -0.000000 -177.297000 -6.869050 11.026300 39.081100 -0.000007 -0.000012 -0.005986 0.026344 12.800400 40.985400 -0.000006 -0.000013 -0.694624 19.983300 -67.163500 11.754300 -0.000000 0.000003 2.390870 3.472620 -14.124300 -2.192510 6.469440 -0.000001 -178.185000 -9.655490 158.259000 -39.081100 -0.002282 -0.040193 -0.003443 0.014579 24.862100 -40.985400 0.000008 0.000006 -2.993570 -12.151500 -61.657000 -11.754300 -0.000006 -0.000006 -0.004054 0.219664 -7.658420
0.000000 0.000000 0.000000 0.000000 0.000000 -0.000000 -205.991000 91.518200 179.986000 27.356000 88.044700 66.542200 15.735700 0.000005 -0.000001 66.493800 84.053000 -65.632300 8.984550 -0.406207 -0.000000 3.187070 -4.773230 1.854870 16.377300 -0.000001 -0.000001 8.193160 5.781910 -2.519050 6.456720 -0.000001 -0.000000 -5.183630 8.173420 3.321000 12.994200 -0.242716 4.980390 -92.773900 7.567470 -69.801200 5.348090 -0.000007 -0.000001 -73.332100 -9.800230 -17.968900 24.328600 0.000019 0.000005 38.251900 23.731100 -62.956900 22.291600 -0.000001 0.000005 58.825900 4.267830 20.285700 12.994500 -0.242716 -4.980390 89.112200 2.356470 -69.348900 -5.348130 -0.000001 -0.000004 -65.063900 -7.243420 12.113900 -24.328900 0.000322 -0.000009 0.076198 2.819350 -1.569220 -22.291500 -0.000108 -0.000004 51.475900 5.520970 -7.404110 -2.192480 -6.469440 -0.000000 -177.312000 -6.827830 12.357500 39.081100 -0.000007 -0.000012 -0.009509 0.038974 13.710300 40.985400 -0.000006 -0.000013 -0.299809 20.110300 -68.743800 11.754300 -0.000000 0.000003 2.946910 4.144970 -15.181700 -2.192510 6.469440 -0.000001 -178.130000 -7.505380 159.824000 -39.081100 -0.002282 -0.040193 0.003397 -0.000262 13.991900 -40.985400 0.000008 0.000006 -3.923310 -7.535230 -61.484100 -11.754300 -0.000006 -0.000006 -0.004382 0.223027 -7.521430
0.000000 0.000000 0.000000 0.000000 0.000000 -0.000000 -203.079000 90.741800 180.275000 14.260200 88.229400 79.202200 15.735700 0.000005 -0.000001 65.429800 84.080300 -64.526800 8.984550 -0.406207 -0.000000 3.051110 -4.955070 1.937060 16.377300 -0.000001 -0.000001 7.421980 5.632790 -2.378320 6.456720 -0.000001 -0.000000 -5.577250 7.994000 3.200710 12.994200 -0.242716 4.980390 -92.814300 7.815020 -70.123800 5.348090 -0.000007 -0.000001 -72.142300 -9.717260 -18.411000 24.328600 0.000019 0.000005 39.114000 22.286600 -64.994700 22.291600 -0.000001 0.000005 58.661500 4.271210 20.234100 12.994500 -0.242716 -4.980390 88.970600 2.744440 -69.431200 -5.348130 -0.000001 -0.000004 -63.910100 -7.679700 12.786000 -24.328900 0.000322 -0.000009 0.119623 3.575250 -1.934190 -22.291500 -0.000108 -0.000004 51.605500 5.514300 -7.121000 -2.192480 -6.469440 -0.000000 -176.897000 -6.615690 13.018200 39.081100 -0.000007 -0.000012 -0.014039 0.050399 15.564600 40.985400 -0.000006 -0.000013 0.188266 20.511300 -70.711800 11.754300 -0.000000 0.000003 3.107170 4.223990 -16.029500 -2.192510 6.469440 -0.000001 -177.113000 -4.409860 160.431000 -39.081100 -0.002282 -0.040193 0.004078 -0.005963 7.016010 -40.985400 0.000008 0.000006 -4.565720 -3.283730 -61.407100 -11.754300 -0.000006 -0.000006 -0.004488 0.224094 -7.477960
0.000000 0.000000 0.000000 0.000000 0.000000 -0.000000 -199.819000 90.031300 180.591000 -4.347250 88.127900 97.215000 15.735700 0.000005 -0.000001 64.057700 84.181300 -63.010200 8.984550 -0.406207 -0.000000 2.756390 -5.132130 2.217500 16.377300 -0.000001 -0.000001 6.592390 5.433520 -2.271330 6.456720 -0.000001 -0.000000 -5.863010 7.862330 2.883660 12.994200 -0.242716 4.980390 -92.882000 8.178090 -70.510900 5.348090 -0.000007 -0.000001 -71.139100 -9.247110 -17.965200 24.328600 0.000019 0.000005 39.678600 21.800100 -65.883900 22.291600 -0.000001 0.000005 58.401700 4.274140 20.189200 12.994500 -0.242716 -4.980390 88.770500 3.264840 -69.351900 -5.348130 -0.000001 -0.000004 -63.002600 -7.909520 12.814800 -24.328900 0.000322 -0.000009 0.162294 3.850580 -2.430490 -22.291500 -0.000108 -0.000004 51.484800 5.517040 -7.236530 -2.192480 -6.469440 -0.000000 -176.318000 -6.143750 13.474500 39.081100 -0.000007 -0.000012 -0.017295 0.054205 17.695500 40.985400 -0.000006 -0.000013 0.492034 20.836500 -71.873600 11.754300 -0.000000 0.000003 2.521690 3.201360 -17.103800 -2.192510 6.469440 -0.000001 -176.009000 -2.106200 159.992000 -39.081100 -0.002282 -0.040193 0.003728 -0.004390 4.955570 -40.985400 0.000008 0.000006 -5.034230 -1.132440 -61.783600 -11.754300 -0.000006 -0.000006 -0.004016 0.219276 -7.674240
0.000000 0.000000 0.000000 0.000000 0.000000 -0.000000 -196.136000 89.486600 180.928000 -13.286900 87.627500 105.258000 15.735700 0.000005 -0.000001 62.204800 84.416300 -60.861200 8.984550 -0.406207 -0.000000 2.185000 -5.269280 2.786630 16.377300 -0.000001 -0.000001 5.826880 5.351490 -2.292980 6.456720 -0.000001 -0.000000 -6.137460 7.763010 2.403060 12.994200 -0.242716 4.980390 -92.918100 8.421640 -70.809700 5.348090 -0.000007 -0.000001 -70.869800 -8.621010 -16.528700 24.328600 0.000019 0.000005 40.352600 22.588500 -65.673100 22.291600 -0.000001 0.000005 58.165700 4.278140 20.127700 12.994500 -0.242716 -4.980390 88.576900 3.735410 -69.127300 -5.348130 -0.000001 -0.000004 -62.650600 -7.531110 11.905900 -24.328900 0.000322 -0.000009 0.176784 3.679290 -2.768880 -22.291500 -0.000108 -0.000004 51.402200 5.521760 -7.437630 -2.192480 -6.469440 -0.000000 -175.432000 -5.745520 13.837000 39.081100 -0.000007 -0.000012 -0.017802 0.049987 19.602200 40.985400 -0.000006 -0.000013 0.680226 21.117700 -71.559800 11.754300 -0.000000 0.000003 0.949018 1.042800 -18.701300 -2.192510 6.469440 -0.000001 -175.021000 -1.152300 158.295000 -39.081100 -0.002282 -0.040193 0.001530 0.012842 8.032030 -40.985400 0.000008 0.000006 -5.623790 -1.366640 -61.454000 -11.754300 -0.000006 -0.000006 -0.003293 0.211543 -7.989070
0.000000 0.000000 0.000000 0.000000 0.000000 -0.000000 -192.212000 89.223900 181.388000 -10.208700 86.391000 100.450000 15.735700 0.000005 -0.000001 59.020700 85.020000 -57.044000 8.984550 -0.406207 -0.000000 0.871873 -5.243680 3.992450 16.377300 -0.000001 -0.000001 5.568140 5.308150 -2.672200 6.456720 -0.000001 -0.000000 -6.674230 7.759910 2.042680 12.994200 -0.242716 4.980390 -93.046200 8.842260 -70.904200 5.348090 -0.000007 -0.000001 -70.863800 -7.723680 -14.069300 24.328600 0.000019 0.000005 39.439200 24.126500 -63.575600 22.291600 -0.000001 0.000005 58.106500 4.330280 19.321800 12.994500 -0.242716 -4.980390 88.339600 4.335450 -69.020100 -5.348130 -0.000001 -0.000004 -62.447800 -6.840280 10.477000 -24.328900 0.000322 -0.000009 0.156283 3.094550 -2.912290 -22.291500 -0.000108 -0.000004 51.093300 5.523080 -7.494110 -2.192480 -6.469440 -0.000000 -173.540000 -6.190310 13.047900 39.081100 -0.000007 -0.000012 -0.012959 0.032461 21.762100 40.985400 -0.000006 -0.000013 0.427797 21.757600 -69.122100 11.754300 -0.000000 0.000003 -0.019914 -0.166825 -23.392500 -2.192510 6.469440 -0.000001 -172.975000 -2.484410 153.631000 -39.081100 -0.002282 -0.040193 -0.021421 0.085644 16.117900 -40.985400 0.000008 0.000006 0.482823 -3.544040 -57.394300 -11.754300 -0.000006 -0.000006 -0.003033 0.208645 -8.107040
0.000000 0.000000 0.000000 0.000000 0.000000 -0.000000 -187.980000 89.235400 181.825000 -9.535790 84.946200 98.177700 15.735700 0.000005 -0.000001 55.199000 85.659500 -52.475400 8.984550 -0.406207 -0.000000 -0.508266 -5.149950 5.424440 16.377300 -0.000001 -0.000001 5.076020 5.203440 -3.007130 6.456720 -0.000001 -0.000000 -6.554710 7.725470 1.477930 12.994200 -0.242716 4.980390 -93.248000 9.432400 -70.900100 5.348090 -0.000007 -0.000001 -71.277100 -6.706710 -11.003300 24.328600 0.000019 0.000005 37.843500 26.678200 -59.975800 22.291600 -0.000001 0.000005 58.249800 4.373760 18.640200 12.994500 -0.242716 -4.980390 88.113200 4.897510 -68.900000 -5.348130 -0.000001 -0.000004 -62.499600 -6.232700 8.754870 -24.328900 0.000322 -0.000009 0.109927 1.967030 -3.229840 -22.291500 -0.000108 -0.000004 50.658100 5.528160 -7.714700 -2.192480 -6.469440 -0.000000 -172.099000 -5.555160 11.366000 39.081100 -0.000007 -0.000012 -0.001185 0.002528 25.109700 40.985400 -0.000006 -0.000013 0.081075 20.862200 -63.981200 11.754300 -0.000000 0.000003 -0.069891 -0.362671 -31.593700 -2.192510 6.469440 -0.000001 -171.083000 -3.451530 151.766000 -39.081100 -0.002282 -0.040193 0.003452 -0.000350 20.596800 -40.985400 0.000008 0.000006 3.195130 -4.984970 -55.974500 -11.754300 -0.000006 -0.000006 -0.004941 0.228566 -7.295760
0.000000 0.000000 0.000000 0.000000 0.000000 -0.000000 -183.532000 89.418000 182.076000 -6.299510 84.096800 94.638400 15.735700 0.000005 -0.000001 55.213400 85.909300 -51.985000 8.984550 -0.406207 -0.000000 -0.900040 -4.910670 6.418650 16.377300 -0.000001 -0.000001 4.463530 5.249930 -3.092600 6.456720 -0.000001 -0.000000 -6.391500 7.758450 0.771972 12.994200 -0.242716 4.980390 -93.332600 9.610240 -70.771300 5.348090 -0.000007 -0.000001 -72.387800 -6.002460 -7.858920 24.328600 0.000019 0.000005 34.041200 28.940900 -54.383100 22.291600 -0.000001 0.000005 57.334200 4.438890 17.597400 12.994500 -0.242716 -4.980390 88.086600 4.992910 -69.001200 -5.348130 -0.000001 -0.000004 -63.872100 -5.021780 6.128980 -24.328900 0.000322 -0.000009 0.058511 0.992047 -3.437890 -22.291500 -0.000108 -0.000004 50.922700 5.531510 -7.861210 -2.192480 -6.469440 -0.000000 -171.351000 -5.199650 9.343680 39.081100 -0.000007 -0.000012 0.010043 -0.017029 30.527300 40.985400 -0.000006 -0.000013 -0.859812 19.818800 -55.767000 11.754300 -0.000000 0.000003 -0.126183 -0.505374 -37.816100 -2.192510 6.469440 -0.000001 -170.097000 -4.399730 151.983000 -39.081100 -0.002282 -0.040193 0.032204 -0.062640 24.760600 -40.985400 0.000008 0.000006 2.817190 -5.794340 -57.165300 -11.754300 -0.000006 -0.000006 -0.007303 0.249914 -6.425040
